{
  "accessors": [
    {
      "bufferView": 2,
      "componentType": 5126,
      "count": 65532,
      "max": [
        0.7945539951324463,
        1.0019210577011108,
        0.7370290160179138
      ],
      "min": [
        -0.5512530207633972,
        -1.0015000104904175,
        -0.7296779751777649
      ],
      "type": "VEC3"
    },
    {
      "bufferView": 2,
      "byteOffset": 786384,
      "componentType": 5126,
      "count": 65532,
      "max": [
        0.9999779462814331,
        0.9999942183494568,
        0.999880850315094
      ],
      "min": [
        -1.0,
        -0.9999531507492065,
        -0.999992311000824
      ],
      "type": "VEC3"
    },
    {
      "bufferView": 1,
      "componentType": 5126,
      "count": 65532,
      "max": [
        0.9944760203361511,
        0.998462975025177
      ],
      "min": [
        0.0015269999857991934,
        0.0015269999857991934
      ],
      "type": "VEC2"
    },
    {
      "bufferView": 0,
      "componentType": 5125,
      "count": 310347,
      "type": "SCALAR"
    },
    {
      "bufferView": 2,
      "byteOffset": 1572768,
      "componentType": 5126,
      "count": 65532,
      "max": [
        0.7945539951324463,
        0.9595180153846741,
        0.7408239841461182
      ],
      "min": [
        -0.7966009974479675,
        -0.8233399987220764,
        -0.7394539713859558
      ],
      "type": "VEC3"
    },
    {
      "bufferView": 2,
      "byteOffset": 2359152,
      "componentType": 5126,
      "count": 65532,
      "max": [
        0.9999880194664001,
        0.9999980330467224,
        0.9999178051948547
      ],
      "min": [
        -0.9999885559082031,
        -0.9998030662536621,
        -0.9999960660934448
      ],
      "type": "VEC3"
    },
    {
      "bufferView": 1,
      "byteOffset": 524256,
      "componentType": 5126,
      "count": 65532,
      "max": [
        0.9944639801979065,
        0.9984729886054993
      ],
      "min": [
        0.0015269999857991934,
        0.0015269999857991934
      ],
      "type": "VEC2"
    },
    {
      "bufferView": 0,
      "byteOffset": 1241388,
      "componentType": 5125,
      "count": 289389,
      "type": "SCALAR"
    },
    {
      "bufferView": 2,
      "byteOffset": 3145536,
      "componentType": 5126,
      "count": 44977,
      "max": [
        0.5454930067062378,
        1.0019210577011108,
        0.7408239841461182
      ],
      "min": [
        -0.5450220108032227,
        -1.0015000104904175,
        -0.009673000313341618
      ],
      "type": "VEC3"
    },
    {
      "bufferView": 2,
      "byteOffset": 3685260,
      "componentType": 5126,
      "count": 44977,
      "max": [
        0.999986469745636,
        0.9998003840446472,
        0.9999901652336121
      ],
      "min": [
        -0.9999850988388062,
        -0.9999513030052185,
        -0.9999700784683228
      ],
      "type": "VEC3"
    },
    {
      "bufferView": 1,
      "byteOffset": 1048512,
      "componentType": 5126,
      "count": 44977,
      "max": [
        0.9944739937782288,
        0.9984719753265381
      ],
      "min": [
        0.0015269999857991934,
        0.0015269999857991934
      ],
      "type": "VEC2"
    },
    {
      "bufferView": 0,
      "byteOffset": 2398944,
      "componentType": 5125,
      "count": 175068,
      "type": "SCALAR"
    }
  ],
  "asset": {
    "extras": {
      "author": "EthanFromEngland (https://sketchfab.com/EthanfromEngland)",
      "license": "CC-BY-4.0 (http://creativecommons.org/licenses/by/4.0/)",
      "source": "https://sketchfab.com/3d-models/generic-winged-demon-monster-meshy-b108126950e74f6781f63fda87c2d832",
      "title": "Generic Winged Demon Monster [MESHY]"
    },
    "generator": "Sketchfab-16.59.0",
    "version": "2.0"
  },
  "bufferViews": [
    {
      "buffer": 0,
      "byteLength": 3099216,
      "name": "floatBufferViews",
      "target": 34963
    },
    {
      "buffer": 0,
      "byteLength": 1408328,
      "byteOffset": 3099216,
      "byteStride": 8,
      "name": "floatBufferViews",
      "target": 34962
    },
    {
      "buffer": 0,
      "byteLength": 4224984,
      "byteOffset": 4507544,
      "byteStride": 12,
      "name": "floatBufferViews",
      "target": 34962
    }
  ],
  "buffers": [
    {
      "byteLength": 8732528,
      "uri": "scene.bin"
    }
  ],
  "images": [
    {
      "uri": "textures/Material.001_baseColor.png"
    }
  ],
  "materials": [
    {
      "doubleSided": true,
      "name": "Material.001",
      "pbrMetallicRoughness": {
        "baseColorTexture": {
          "index": 0
        },
        "metallicFactor": 0.0,
        "roughnessFactor": 0.8211145618000169
      }
    }
  ],
  "meshes": [
    {
      "name": "Mesh1_Mesh1.016_Material.001_0",
      "primitives": [
        {
          "attributes": {
            "NORMAL": 1,
            "POSITION": 0,
            "TEXCOORD_0": 2
          },
          "indices": 3,
          "material": 0,
          "mode": 4
        }
      ]
    },
    {
      "name": "Mesh1_Mesh1.016_Material.001_0",
      "primitives": [
        {
          "attributes": {
            "NORMAL": 5,
            "POSITION": 4,
            "TEXCOORD_0": 6
          },
          "indices": 7,
          "material": 0,
          "mode": 4
        }
      ]
    },
    {
      "name": "Mesh1_Mesh1.016_Material.001_0",
      "primitives": [
        {
          "attributes": {
            "NORMAL": 9,
            "POSITION": 8,
            "TEXCOORD_0": 10
          },
          "indices": 11,
          "material": 0,
          "mode": 4
        }
      ]
    }
  ],
  "nodes": [
    {
      "children": [
        1
      ],
      "matrix": [
        1.0,
        0.0,
        0.0,
        0.0,
        0.0,
        2.220446049250313e-16,
        -1.0,
        0.0,
        0.0,
        1.0,
        2.220446049250313e-16,
        0.0,
        0.0,
        0.0,
        0.0,
        1.0
      ],
      "name": "Sketchfab_model"
    },
    {
      "children": [
        2
      ],
      "matrix": [
        0.009999999776482582,
        0.0,
        0.0,
        0.0,
        0.0,
        0.0,
        0.009999999776482582,
        0.0,
        0.0,
        -0.009999999776482582,
        0.0,
        0.0,
        0.0,
        0.0,
        0.0,
        1.0
      ],
      "name": "A_monster_character__0213112423_texture.fbx"
    },
    {
      "children": [
        3
      ],
      "name": "RootNode"
    },
    {
      "children": [
        4,
        5,
        6
      ],
      "matrix": [
        100.0,
        0.0,
        0.0,
        0.0,
        0.0,
        99.99999999999972,
        -7.5497901264043296e-06,
        0.0,
        0.0,
        7.5497901264043296e-06,
        99.99999999999972,
        0.0,
        0.0,
        0.0,
        0.0,
        1.0
      ],
      "name": "Mesh1_Mesh1.016"
    },
    {
      "mesh": 0,
      "name": "Mesh1_Mesh1.016_Material.001_0"
    },
    {
      "mesh": 1,
      "name": "Mesh1_Mesh1.016_Material.001_0"
    },
    {
      "mesh": 2,
      "name": "Mesh1_Mesh1.016_Material.001_0"
    }
  ],
  "samplers": [
    {
      "magFilter": 9729,
      "minFilter": 9987,
      "wrapS": 10497,
      "wrapT": 10497
    }
  ],
  "scene": 0,
  "scenes": [
    {
      "name": "Sketchfab_Scene",
      "nodes": [
        0
      ]
    }
  ],
  "textures": [
    {
      "sampler": 0,
      "source": 0
    }
  ]
}
